<?xml version="1.0" encoding="UTF-8"?>
<!DOCTYPE svg PUBLIC "-//W3C//DTD SVG 1.1//EN" "http://www.w3.org/Graphics/SVG/1.1/DTD/svg11.dtd">
<svg version="1.1" xmlns="http://www.w3.org/2000/svg" xmlns:xlink="http://www.w3.org/1999/xlink" x="0" y="0" width="500" height="535" viewBox="0, 0, 500, 535">
  <g id="Layer_1">
    <g>
      <g>
        <path d="M172.697,433.269 C172.697,433.269 171.647,477.605 166.422,478.494 C161.188,479.387 116.207,487.366 119.347,490.911 C122.487,494.461 163.283,497.117 163.283,497.117 C163.283,497.117 119.342,513.084 127.716,515.745 C136.08,518.401 217.682,500.662 214.537,496.228 C211.403,491.799 194.66,478.494 194.66,478.494 L196.754,443.02" fill="#ECB751"/>
        <path d="M172.697,433.269 C172.697,433.269 171.647,477.605 166.422,478.494 C161.188,479.387 116.207,487.366 119.347,490.911 C122.487,494.461 163.283,497.117 163.283,497.117 C163.283,497.117 119.342,513.084 127.716,515.745 C136.08,518.401 217.682,500.662 214.537,496.228 C211.403,491.799 194.66,478.494 194.66,478.494 L196.754,443.02" fill-opacity="0" stroke="#493020" stroke-width="10" stroke-linecap="round" stroke-linejoin="round"/>
      </g>
      <g>
        <path d="M241.569,442.625 C241.569,442.625 240.524,486.965 235.294,487.854 C230.065,488.748 185.084,496.716 188.224,500.266 C191.359,503.811 232.16,506.477 232.16,506.477 C232.16,506.477 188.219,522.439 196.588,525.095 C204.957,527.761 286.559,510.022 283.419,505.589 C280.275,501.155 263.536,487.854 263.536,487.854 L265.626,452.381" fill="#ECB751"/>
        <path d="M241.569,442.625 C241.569,442.625 240.524,486.965 235.294,487.854 C230.065,488.748 185.084,496.716 188.224,500.266 C191.359,503.811 232.16,506.477 232.16,506.477 C232.16,506.477 188.219,522.439 196.588,525.095 C204.957,527.761 286.559,510.022 283.419,505.589 C280.275,501.155 263.536,487.854 263.536,487.854 L265.626,452.381" fill-opacity="0" stroke="#493020" stroke-width="10" stroke-linecap="round" stroke-linejoin="round"/>
      </g>
      <path d="M72.54,135.657 C72.54,135.657 58.937,134.798 52.99,139.055 C47.033,143.308 46.183,161.165 37.677,171.37 C29.176,181.575 7.067,199.431 8.766,218.987 C10.475,238.548 30.031,259.807 64.044,247.898 C98.053,235.989 73.39,165.423 72.54,135.657" fill="#DF4E57"/>
      <path d="M72.54,135.657 C72.54,135.657 58.937,134.798 52.99,139.055 C47.033,143.308 46.183,161.165 37.677,171.37 C29.176,181.575 7.067,199.431 8.766,218.987 C10.475,238.548 30.031,259.807 64.044,247.898 C98.053,235.989 73.39,165.423 72.54,135.657 z" fill-opacity="0" stroke="#493020" stroke-width="10" stroke-linecap="round" stroke-linejoin="round"/>
      <path d="M491.754,99.939 C479,77.835 365.905,54.021 319.137,87.19 C281.857,113.626 299.152,192.976 307.697,224.09 C307.531,224.099 307.399,224.08 307.233,224.09 C307.233,224.09 263.019,248.753 219.65,217.288 L71.696,230.891 C71.696,230.891 15.573,275.11 18.971,354.187 C21.603,415.359 91.251,460.515 223.903,461.331 C362.506,462.18 422.028,414.568 429.679,298.919 C429.679,298.919 449.24,291.267 452.638,281.062 C458.424,263.684 425.431,252.146 425.431,252.146 C425.431,252.146 456.896,241.946 454.342,224.944 C452.135,210.232 422.028,207.937 422.028,207.937 C422.028,207.937 472.199,198.577 472.199,165.418 C472.199,134.06 412.672,144.163 412.672,144.163 C412.672,144.163 504.508,122.053 491.754,99.939" fill="#FFFFFE"/>
      <path d="M491.754,99.939 C479,77.835 365.905,54.021 319.137,87.19 C281.857,113.626 299.152,192.976 307.697,224.09 C307.531,224.099 307.399,224.08 307.233,224.09 C307.233,224.09 263.019,248.753 219.65,217.288 L71.696,230.891 C71.696,230.891 15.573,275.11 18.971,354.187 C21.603,415.359 91.251,460.515 223.903,461.331 C362.506,462.18 422.028,414.568 429.679,298.919 C429.679,298.919 449.24,291.267 452.638,281.062 C458.424,263.684 425.431,252.146 425.431,252.146 C425.431,252.146 456.896,241.946 454.342,224.944 C452.135,210.232 422.028,207.937 422.028,207.937 C422.028,207.937 472.199,198.577 472.199,165.418 C472.199,134.06 412.672,144.163 412.672,144.163 C412.672,144.163 504.508,122.053 491.754,99.939 z" fill-opacity="0" stroke="#493020" stroke-width="10" stroke-linecap="round" stroke-linejoin="round"/>
      <g>
        <path d="M77.643,114.397 C77.643,114.397 17.267,128.85 18.971,137.356 C20.675,145.862 61.495,162.864 61.495,162.864" fill="#ECB751"/>
        <path d="M77.643,114.397 C77.643,114.397 17.267,128.85 18.971,137.356 C20.675,145.862 61.495,162.864 61.495,162.864" fill-opacity="0" stroke="#493020" stroke-width="10" stroke-linecap="round" stroke-linejoin="round"/>
      </g>
      <g>
        <path d="M86.149,94.841 C86.149,94.841 67.438,53.176 88.698,38.718 C106.847,26.384 115.006,40.242 123.561,37.864 C138.869,33.616 132.916,4.705 163.522,8.108 C190.587,11.121 176.281,36.17 187.335,40.418 C198.39,44.671 208.6,37.014 217.096,48.923 C230.446,67.62 217.619,78.108 223.048,85.486 C234.952,101.643 236.657,116.951 218.8,130.554" fill="#DF4E57"/>
        <path d="M86.149,94.841 C86.149,94.841 67.438,53.176 88.698,38.718 C106.847,26.384 115.006,40.242 123.561,37.864 C138.869,33.616 132.916,4.705 163.522,8.108 C190.587,11.121 176.281,36.17 187.335,40.418 C198.39,44.671 208.6,37.014 217.096,48.923 C230.446,67.62 217.619,78.108 223.048,85.486 C234.952,101.643 236.657,116.951 218.8,130.554" fill-opacity="0" stroke="#493020" stroke-width="10" stroke-linecap="round" stroke-linejoin="round"/>
      </g>
      <path d="M44.484,243.679 C44.484,243.679 63.615,227.83 59.786,218.772 C55.963,209.715 34.279,68.186 140.143,65.921 C248.649,63.601 221.779,200.652 233.253,209.715 C244.733,218.772 256.212,230.095 256.212,230.095 C256.212,230.095 224.327,228.963 219.225,231.223 C214.122,233.494 211.569,252.737 211.569,252.737 C211.569,252.737 178.41,236.882 174.581,240.281 C170.758,243.679 157.999,267.459 157.999,267.459 L136.32,245.94 L100.602,264.055 C100.602,264.055 100.602,236.882 95.504,236.882 C90.402,236.882 44.484,243.679 44.484,243.679" fill="#FFFFFE"/>
      <path d="M44.484,243.679 C44.484,243.679 63.615,227.83 59.786,218.772 C55.963,209.715 34.279,68.186 140.143,65.921 C248.649,63.601 221.779,200.652 233.253,209.715 C244.733,218.772 256.212,230.095 256.212,230.095 C256.212,230.095 224.327,228.963 219.225,231.223 C214.122,233.494 211.569,252.737 211.569,252.737 C211.569,252.737 178.41,236.882 174.581,240.281 C170.758,243.679 157.999,267.459 157.999,267.459 L136.32,245.94 L100.602,264.055 C100.602,264.055 100.602,236.882 95.504,236.882 C90.402,236.882 44.484,243.679 44.484,243.679 z" fill-opacity="0" stroke="#493020" stroke-width="10" stroke-linecap="round" stroke-linejoin="round"/>
      <path d="M137.169,132.258 C137.169,144.939 130.128,155.217 121.437,155.217 C112.75,155.217 105.709,144.939 105.709,132.258 C105.709,119.578 112.75,109.299 121.437,109.299 C130.128,109.299 137.169,119.578 137.169,132.258" fill="#493020"/>
      <g>
        <path d="M187.335,276.809 C187.335,276.809 145.675,278.508 132.921,308.269 C120.167,338.035 134.616,398.411 233.253,403.508 C319.977,407.996 381.217,383.953 382.062,368.65 C382.907,353.342 359.957,354.187 359.957,354.187 C359.957,354.187 405.016,340.579 404.171,331.233 C403.322,321.878 360.807,318.479 360.807,318.479 C360.807,318.479 393.185,310.173 392.267,301.472 C390.568,285.31 315.739,289.563 315.739,289.563" fill="#FFFFFE"/>
        <path d="M187.335,276.809 C187.335,276.809 145.675,278.508 132.921,308.269 C120.167,338.035 134.616,398.411 233.253,403.508 C319.977,407.996 381.217,383.953 382.062,368.65 C382.907,353.342 359.957,354.187 359.957,354.187 C359.957,354.187 405.016,340.579 404.171,331.233 C403.322,321.878 360.807,318.479 360.807,318.479 C360.807,318.479 393.185,310.173 392.267,301.472 C390.568,285.31 315.739,289.563 315.739,289.563" fill-opacity="0" stroke="#493020" stroke-width="10" stroke-linecap="round" stroke-linejoin="round"/>
      </g>
    </g>
  </g>
  <!-- Obtained from https://freesvg.org/cartoon-rooster which claims this is public domain -->
</svg>
